<?xml version="1.0" standalone="no"?>
<!DOCTYPE svg PUBLIC "-//W3C//DTD SVG 20010904//EN"
 "http://www.w3.org/TR/2001/REC-SVG-20010904/DTD/svg10.dtd">
<svg version="1.0" xmlns="http://www.w3.org/2000/svg"
 width="1063.000000pt" height="1280.000000pt" viewBox="0 0 1063.000000 1280.000000"
 preserveAspectRatio="xMidYMid meet">
<metadata>
Created by potrace 1.15, written by Peter Selinger 2001-2017
</metadata>
<g transform="translate(0.000000,1280.000000) scale(0.100000,-0.100000)"
fill="#000000" stroke="none">
<path d="M5636 12522 c12 -81 27 -208 34 -282 6 -74 18 -193 26 -265 8 -71 21
-213 30 -315 18 -213 56 -452 89 -560 13 -41 65 -178 116 -305 l92 -230 128
-170 c70 -93 162 -208 205 -255 83 -92 104 -129 104 -186 0 -71 -310 -1192
-349 -1262 -7 -11 -20 1 -63 59 -47 63 -64 99 -111 236 -43 124 -90 228 -201
445 -127 250 -305 575 -380 694 -61 97 -287 380 -413 516 -216 234 -357 353
-578 486 -106 64 -400 206 -416 200 -4 -2 27 -61 68 -133 42 -71 143 -263 225
-425 82 -162 182 -358 221 -435 40 -77 97 -191 127 -253 60 -126 197 -346 277
-447 l52 -65 -30 -15 c-47 -25 -140 -125 -182 -195 -78 -134 -116 -324 -97
-489 5 -49 13 -97 16 -105 3 -9 4 -16 1 -16 -7 0 -157 264 -157 274 0 32 -409
564 -567 738 -463 509 -788 752 -1327 993 -94 41 -173 74 -177 73 -4 -2 44
-93 108 -203 64 -110 196 -363 294 -562 98 -199 203 -404 233 -456 65 -112
156 -293 259 -513 135 -290 346 -613 512 -784 61 -63 209 -222 329 -352 119
-131 236 -250 259 -266 119 -82 566 -351 679 -409 l73 -37 -75 -7 c-92 -8
-202 -49 -289 -108 -67 -46 -164 -140 -203 -197 -23 -33 -38 -43 -38 -25 0 23
-77 137 -131 196 -75 80 -151 131 -243 163 -61 21 -84 24 -172 20 -95 -3 -106
-6 -186 -45 -155 -77 -279 -242 -335 -443 -27 -100 -25 -348 4 -455 61 -222
184 -391 349 -477 82 -43 132 -57 207 -60 l56 -2 6 -61 c11 -122 76 -1108 73
-1117 -2 -5 -33 32 -69 84 -64 91 -66 98 -143 348 -63 206 -94 289 -163 435
-47 99 -121 257 -165 350 -44 94 -87 188 -95 210 -7 22 -72 148 -142 280 -71
132 -157 296 -191 365 -71 142 -82 158 -313 483 -201 282 -415 535 -657 778
-226 228 -413 374 -695 544 -115 69 -525 273 -525 261 0 -2 18 -36 41 -77 118
-214 272 -525 384 -779 69 -157 175 -382 235 -501 60 -119 157 -327 215 -463
168 -389 396 -777 548 -931 27 -27 145 -160 260 -295 116 -135 235 -273 266
-308 44 -51 111 -99 355 -261 315 -207 372 -242 548 -335 59 -31 130 -75 158
-97 51 -40 106 -114 116 -156 7 -26 -80 -155 -325 -483 l-145 -195 -12 60
c-48 228 -187 368 -399 398 -138 20 -304 -32 -447 -141 -38 -28 -68 -48 -68
-44 0 4 7 41 16 82 24 110 21 320 -4 436 -126 567 -634 826 -1032 525 -30 -22
-57 -41 -60 -41 -3 0 -22 60 -43 133 -148 519 -248 801 -440 1232 -107 241
-146 319 -244 480 -206 344 -481 680 -807 987 -111 106 -128 118 -123 92 6
-26 54 -321 77 -469 31 -197 47 -333 75 -640 2 -27 11 -126 20 -220 18 -201
43 -403 56 -462 20 -94 46 -335 69 -643 20 -281 38 -398 112 -730 60 -272 92
-379 157 -519 32 -70 127 -297 211 -506 84 -209 165 -405 181 -436 53 -106
553 -740 730 -925 182 -190 243 -283 256 -391 l5 -49 -128 -105 c-301 -244
-575 -446 -892 -658 -69 -46 -122 -88 -119 -94 3 -7 17 -43 32 -82 22 -54 43
-85 94 -137 36 -38 68 -68 72 -68 10 0 232 157 409 289 196 146 426 330 604
485 77 67 154 134 172 149 l33 28 168 -69 c92 -39 292 -120 443 -182 687 -281
675 -275 673 -301 -1 -13 -5 -58 -9 -100 -18 -198 88 -436 271 -607 154 -145
366 -248 577 -282 109 -18 312 -8 403 19 241 72 401 225 455 437 94 366 -187
777 -640 939 -270 96 -567 78 -777 -46 -77 -46 -173 -142 -212 -211 l-32 -57
-73 33 c-40 19 -313 141 -607 271 -294 131 -536 240 -538 242 -2 1 4 12 14 23
28 31 165 27 352 -9 191 -38 200 -39 316 -51 53 -5 139 -14 190 -20 133 -14
287 -28 491 -45 172 -14 183 -14 295 6 124 21 267 48 421 79 176 36 424 79
515 90 108 14 176 30 313 76 337 113 579 215 846 358 289 155 496 258 589 295
93 37 252 116 677 333 306 157 652 318 898 418 45 19 82 37 82 41 0 4 -10 9
-22 12 -13 2 -106 23 -208 46 -428 97 -706 131 -1083 131 -296 0 -573 -33
-1065 -126 -237 -45 -257 -50 -562 -137 l-255 -72 -80 81 c-68 68 -96 89 -175
127 -146 69 -207 82 -395 81 -140 0 -172 -4 -258 -27 -303 -81 -560 -284 -681
-536 -53 -110 -70 -202 -63 -337 l5 -112 -211 -102 c-117 -56 -239 -119 -272
-140 -48 -31 -298 -140 -321 -140 -3 0 68 78 159 172 502 527 933 1066 1355
1698 l164 245 55 12 c39 8 76 8 125 1 67 -9 114 -23 378 -116 129 -46 319 -99
727 -203 l278 -71 445 8 c245 4 537 9 650 9 219 1 305 12 648 85 244 51 296
66 667 190 198 67 432 139 520 161 88 21 196 50 240 65 44 14 231 74 415 134
401 130 464 149 824 240 154 39 282 72 284 75 5 4 -17 14 -230 101 -225 92
-331 129 -528 185 -194 56 -452 110 -635 134 -298 39 -1046 37 -1390 -4 -93
-11 -251 -30 -350 -41 -239 -28 -355 -48 -445 -77 -41 -13 -244 -66 -450 -118
-206 -51 -394 -101 -417 -109 -24 -8 -43 -14 -43 -12 0 1 25 20 55 41 96 65
199 185 250 288 90 182 97 335 24 485 -61 126 -190 218 -344 247 -94 18 -147
18 -245 1 -289 -52 -545 -266 -636 -531 -46 -135 -36 -311 24 -403 9 -13 11
-27 6 -32 -8 -7 -611 -396 -696 -448 -37 -23 -36 -21 58 138 132 225 294 522
403 737 90 179 93 183 138 203 112 49 245 170 328 298 100 155 148 319 148
502 0 63 -5 135 -11 160 -6 24 -9 46 -7 48 2 3 789 -428 833 -456 10 -7 9 -17
-3 -51 -20 -57 -19 -196 1 -275 49 -191 212 -376 419 -476 138 -67 205 -83
350 -84 97 -1 133 3 190 21 234 73 371 284 335 515 -43 277 -287 528 -591 607
-41 11 -63 21 -49 21 14 1 192 5 395 10 393 8 373 6 710 75 139 28 194 44 470
136 149 50 338 108 421 130 83 21 277 80 430 130 317 104 506 159 758 221 97
23 176 45 176 48 0 8 -374 155 -485 190 -194 61 -403 108 -615 137 -100 13
-200 17 -495 16 -350 0 -385 -2 -645 -32 -306 -36 -461 -58 -500 -73 -14 -5
-167 -45 -340 -89 -173 -44 -346 -90 -385 -104 -38 -13 -214 -67 -390 -120
-294 -88 -339 -105 -545 -201 -198 -92 -236 -107 -315 -119 -49 -7 -91 -13
-92 -11 -2 2 538 524 678 654 l65 61 45 -30 c83 -54 160 -74 289 -73 96 1 128
6 195 28 361 122 615 487 565 811 -56 369 -475 508 -852 284 -137 -81 -280
-241 -344 -384 -81 -184 -73 -404 21 -542 l35 -52 -303 -274 c-166 -150 -308
-276 -315 -281 -6 -4 2 30 19 76 303 812 582 1750 744 2503 16 74 35 135 44
143 26 21 97 13 200 -24 102 -36 379 -113 486 -134 46 -10 131 -10 365 -2 359
12 433 24 750 127 107 35 236 74 285 88 50 14 162 48 250 77 166 54 247 77
400 114 49 12 85 25 80 28 -30 18 -233 94 -320 119 -227 66 -294 74 -600 74
-231 0 -309 -4 -445 -22 -179 -24 -497 -101 -760 -183 -85 -27 -188 -58 -229
-70 -41 -12 -135 -50 -210 -85 -94 -44 -154 -65 -193 -70 -32 -3 -58 -3 -58 2
0 5 31 166 69 358 71 355 140 750 185 1060 53 361 137 1056 135 1113 -2 29 -6
4 -50 -323 -72 -531 -192 -1197 -316 -1750 -42 -187 -78 -352 -81 -367 -2 -16
-8 -28 -12 -28 -15 0 -21 74 -19 243 2 179 -30 533 -70 791 -11 66 -23 148
-27 181 -10 90 -108 421 -171 580 -101 255 -178 398 -302 560 -54 71 -259 295
-270 295 -4 0 2 -66 15 -148z m234 -3692 c108 -54 162 -96 187 -144 9 -17 22
-34 29 -39 24 -14 -232 -742 -450 -1282 -42 -104 -78 -191 -80 -193 -3 -2 -9
20 -15 50 -22 114 -181 964 -181 970 0 3 30 20 68 38 98 48 198 153 251 262
49 103 71 186 78 300 3 48 8 88 10 88 2 0 48 -22 103 -50z m-850 -599 c69 -33
185 -56 236 -48 19 3 36 2 39 -2 7 -12 166 -1053 162 -1064 -1 -5 -30 17 -62
50 l-60 58 -79 235 c-82 242 -92 265 -334 730 l-86 164 62 -47 c33 -26 89 -60
122 -76z m885 -1316 c55 -18 132 -44 170 -58 80 -30 276 -84 550 -152 105 -26
196 -51 204 -55 10 -5 0 -10 -28 -15 -92 -15 -227 -103 -287 -187 l-19 -27
-432 256 c-238 142 -430 260 -425 264 28 27 140 16 267 -26z m-1410 -906 c11
-35 127 -150 182 -181 29 -17 53 -34 53 -39 0 -4 -85 -215 -188 -468 -124
-302 -203 -482 -232 -526 -24 -37 -45 -64 -47 -59 -1 5 -25 239 -53 519 -27
281 -51 520 -53 533 -2 20 6 26 49 41 79 27 161 80 218 143 28 31 54 57 58 57
4 1 10 -8 13 -20z m372 -247 c9 -6 -11 -50 -71 -157 -92 -166 -169 -296 -164
-278 2 6 39 108 83 227 80 216 80 216 110 216 17 0 35 -4 42 -8z m490 -662
c83 -73 212 -120 327 -120 33 0 56 -4 50 -8 -5 -5 -119 -41 -254 -81 -228 -67
-267 -82 -555 -215 -266 -123 -319 -144 -375 -150 -36 -3 -85 -9 -110 -12 -38
-6 -43 -4 -32 7 18 19 885 618 895 618 5 1 29 -17 54 -39z m-2867 -1425 c-34
-203 23 -401 150 -519 l58 -53 -260 -404 c-243 -378 -300 -459 -320 -459 -10
0 -11 576 -1 1001 l6 307 60 13 c76 16 176 64 252 122 33 25 61 45 61 44 1 -1
-2 -24 -6 -52z m-497 -121 l47 -7 0 -41 c0 -86 -50 -1289 -53 -1292 -2 -2 -16
41 -31 96 l-28 100 8 322 c9 328 8 351 -26 634 -26 212 -27 208 8 200 15 -3
48 -9 75 -12z m821 -499 c27 -8 64 -15 83 -15 18 0 33 -5 33 -10 0 -13 -428
-449 -483 -492 -32 -26 -16 5 130 251 93 154 173 280 178 281 6 0 32 -7 59
-15z"/>
<path d="M6942 12560 c0 -14 2 -19 5 -12 2 6 2 18 0 25 -3 6 -5 1 -5 -13z"/>
</g>
</svg>
