<?xml version="1.0" standalone="no"?>
<!DOCTYPE svg PUBLIC "-//W3C//DTD SVG 20010904//EN"
 "http://www.w3.org/TR/2001/REC-SVG-20010904/DTD/svg10.dtd">
<svg version="1.0" xmlns="http://www.w3.org/2000/svg"
 width="989.000000pt" height="1280.000000pt" viewBox="0 0 989.000000 1280.000000"
 preserveAspectRatio="xMidYMid meet">
<metadata>
Created by potrace 1.15, written by Peter Selinger 2001-2017
</metadata>
<g transform="translate(0.000000,1280.000000) scale(0.100000,-0.100000)"
fill="#000000" stroke="none">
<path d="M150 12742 c0 -144 48 -390 116 -591 120 -355 321 -674 614 -975 716
-734 1853 -1172 3445 -1327 173 -16 526 -39 617 -39 71 0 102 -6 173 -31 364
-128 737 -392 981 -694 l73 -90 -47 -10 c-42 -9 -55 -7 -121 18 -336 130 -834
172 -1203 102 -65 -12 -68 -12 -135 17 -209 88 -584 203 -908 278 -83 20 -279
55 -440 80 -406 63 -946 67 -1345 10 -717 -102 -1354 -400 -1879 -879 l-94
-86 84 -78 c459 -429 1030 -698 1627 -767 139 -16 487 -13 620 4 776 105 1523
503 2288 1222 l131 123 94 17 c128 22 468 30 612 14 139 -15 312 -50 441 -91
l98 -30 -88 -58 c-305 -197 -716 -657 -987 -1104 -132 -216 -165 -303 -278
-712 -81 -296 -63 -264 -187 -331 -75 -42 -127 -78 -175 -125 -61 -60 -73 -68
-128 -78 -75 -15 -261 -78 -353 -120 -86 -39 -239 -129 -331 -194 -687 -487
-1191 -1411 -1350 -2472 -42 -284 -50 -396 -49 -720 1 -467 47 -811 160 -1199
376 -1283 1289 -1999 2279 -1787 563 121 1114 566 1499 1211 69 115 202 371
226 435 l10 27 59 -55 c368 -340 790 -547 1261 -617 109 -16 397 -14 515 4
833 126 1473 760 1720 1701 25 95 52 239 71 375 24 174 24 573 0 760 -93 727
-392 1375 -855 1852 -212 219 -428 384 -671 512 -506 265 -1062 316 -1560 144
-112 -38 -119 -39 -265 -42 -104 -1 -158 2 -176 11 -73 34 -177 280 -243 573
-18 78 -42 353 -51 575 -14 345 28 495 254 908 128 233 141 284 99 394 -15 43
-37 74 -81 117 -33 32 -86 93 -117 135 -249 336 -636 626 -1025 770 -56 21
-63 27 -99 89 -154 265 -419 613 -696 917 -730 798 -1653 1392 -2646 1700
-466 144 -951 230 -1476 260 l-108 6 0 -59z m5759 -4404 c-68 -401 -72 -959
-10 -1328 10 -61 86 -280 179 -520 33 -85 67 -176 76 -202 l15 -47 -54 -112
c-29 -62 -57 -129 -60 -148 -5 -25 -25 -56 -70 -103 l-63 -68 -46 58 c-77 93
-245 260 -331 327 -124 96 -200 144 -333 211 -114 57 -125 66 -171 126 -60 79
-138 149 -208 185 -29 15 -58 39 -65 52 -43 80 24 366 146 626 46 98 194 337
313 508 119 169 199 255 303 327 87 59 363 209 385 210 7 0 5 -36 -6 -102z"/>
</g>
</svg>
